<svg width="218" height="278" viewBox="0 0 218 278" fill="none" xmlns="http://www.w3.org/2000/svg">
<path d="M218 204.837C218 189.793 211.325 176.001 200.56 166.836V125.548C200.56 120.482 198.855 115.854 196.087 112.097H196.2C203.411 112.097 209.28 106.061 209.28 98.6452V71.7419C209.28 59.3799 199.501 49.3226 187.48 49.3226H178.263C167.655 20.5496 140.654 0 109 0C77.3464 0 50.3449 20.5496 39.737 49.3226H30.52C18.4995 49.3226 8.72 59.3799 8.72 71.7419V98.6452C8.72 106.061 14.5886 112.097 21.8 112.097H21.9134C19.1448 115.854 17.44 120.482 17.44 125.548V166.836C6.67516 176.001 0 189.789 0 204.837V278H218V204.837ZM191.84 125.548V160.949C188.866 159.384 185.723 158.088 182.396 157.178L152.6 149.008V137.736C161.586 130.978 169.076 122.248 174.365 112.101H178.76C185.971 112.097 191.84 118.132 191.84 125.548V125.548ZM109 170.387C110.448 170.387 111.904 170.356 113.36 170.302V269.032H104.64V170.302C106.096 170.356 107.552 170.387 109 170.387ZM109 161.419C86.11 161.419 74.12 154.756 74.12 152.452V143.448C84.523 149.178 96.3952 152.452 109 152.452C121.605 152.452 133.477 149.178 143.88 143.448V152.452C143.88 154.756 131.89 161.419 109 161.419ZM44.9472 89.8344C46.4296 82.2387 49.111 75.1452 52.7996 68.7691C52.49 71.2353 52.32 73.7193 52.32 76.2258C52.32 108.366 77.7475 134.516 109 134.516C140.252 134.516 165.68 108.366 165.68 76.2258C165.68 73.7193 165.506 71.2308 165.2 68.7646C168.889 75.1407 171.57 82.2387 173.053 89.8344C166.914 120.419 140.527 143.484 109 143.484C77.4728 143.484 51.0861 120.419 44.9472 89.8344ZM109 35.871C124.426 35.871 138.783 41.4534 150.097 50.8695C154.566 58.5145 156.96 67.2536 156.96 76.2258C156.96 103.42 135.443 125.548 109 125.548C82.5566 125.548 61.04 103.42 61.04 76.2258C61.04 67.267 63.4206 58.5235 67.8765 50.8919C79.195 41.4579 93.5612 35.871 109 35.871ZM187.48 58.2903C194.691 58.2903 200.56 64.3256 200.56 71.7419V98.6452C200.56 101.116 198.602 103.129 196.2 103.129H178.76H178.263C181.35 94.7487 183.12 85.7047 183.12 76.2258C183.12 70.0381 182.322 64.0521 180.962 58.2903H187.48ZM173.528 65.7739C164.185 48.7083 148.724 35.9293 130.442 30.2303L136.468 15.2721C155.874 24.5582 170.097 43.3187 173.528 65.7739ZM128.35 11.9764L121.871 28.0645C117.681 27.3068 113.377 26.9032 109 26.9032C104.627 26.9032 100.332 27.3068 96.1467 28.0645L89.7419 11.954C95.8328 10.017 102.299 8.96774 109 8.96774C115.736 8.96774 122.233 10.0215 128.35 11.9764V11.9764ZM81.6236 15.2272L87.5837 30.2213C69.2935 35.9158 53.8242 48.6993 44.4764 65.7739C47.9077 43.2873 62.1692 24.4999 81.6236 15.2272ZM17.44 98.6452V71.7419C17.44 64.3256 23.3086 58.2903 30.52 58.2903H37.0382C35.6779 64.0521 34.88 70.0381 34.88 76.2258C34.88 85.7047 36.6502 94.7487 39.737 103.129H39.24H21.8C19.3976 103.129 17.44 101.116 17.44 98.6452ZM26.16 125.548C26.16 118.132 32.0286 112.097 39.24 112.097H43.6349C48.9236 122.248 56.414 130.978 65.4 137.731V149.004L35.6038 157.178C32.2771 158.088 29.1335 159.384 26.16 160.949V125.548ZM8.72 224.194H13.08C15.4824 224.194 17.44 226.207 17.44 228.677V246.613C17.44 249.084 15.4824 251.097 13.08 251.097H8.72V224.194ZM8.72 260.065H13.08C20.2914 260.065 26.16 254.029 26.16 246.613V228.677C26.16 221.261 20.2914 215.226 13.08 215.226H8.72V204.837C8.72 186.583 20.7013 170.549 37.8492 165.845L67.083 157.828C71.2555 164.285 82.8792 168.127 95.92 169.634V269.032H43.6V220.799C43.6 207.334 38.5032 194.676 29.2425 185.152L23.0775 191.493C30.69 199.322 34.88 209.729 34.88 220.799V269.032H8.72V260.065ZM183.12 269.032V220.799C183.12 209.729 187.31 199.322 194.923 191.493L188.757 185.152C179.497 194.676 174.4 207.334 174.4 220.799V269.032H122.08V169.634C135.121 168.127 146.74 164.28 150.917 157.828L180.151 165.845C197.299 170.549 209.28 186.583 209.28 204.837V215.226H204.92C197.709 215.226 191.84 221.261 191.84 228.677V246.613C191.84 254.029 197.709 260.065 204.92 260.065H209.28V269.032H183.12ZM209.28 224.194V251.097H204.92C202.518 251.097 200.56 249.084 200.56 246.613V228.677C200.56 226.207 202.518 224.194 204.92 224.194H209.28ZM130.8 224.194H165.68V197.29H130.8V224.194ZM139.52 206.258H156.96V215.226H139.52V206.258ZM69.76 260.065C79.3782 260.065 87.2 252.02 87.2 242.129C87.2 232.238 79.3782 224.194 69.76 224.194C60.1418 224.194 52.32 232.238 52.32 242.129C52.32 252.02 60.1418 260.065 69.76 260.065ZM69.76 233.161C74.5691 233.161 78.48 237.183 78.48 242.129C78.48 247.075 74.5691 251.097 69.76 251.097C64.9509 251.097 61.04 247.075 61.04 242.129C61.04 237.183 64.9509 233.161 69.76 233.161ZM69.76 197.29H61.04V188.323H69.76V197.29ZM52.32 197.29H43.6V188.323H52.32V197.29ZM87.2 197.29H78.48V188.323H87.2V197.29ZM69.76 215.226H61.04V206.258H69.76V215.226ZM87.2 215.226H78.48V206.258H87.2V215.226ZM130.8 233.161H139.52V242.129H130.8V233.161ZM148.24 233.161H156.96V242.129H148.24V233.161ZM148.24 251.097H156.96V260.065H148.24V251.097ZM130.8 251.097H139.52V260.065H130.8V251.097ZM79.4392 68.379L70.9939 66.1416C71.8746 62.6128 73.2262 59.2185 75.0094 56.0484L82.5566 60.5367C81.1788 62.9984 80.1237 65.6349 79.4392 68.379ZM78.48 76.2258C78.48 93.5335 92.1704 107.613 109 107.613V116.581C87.3657 116.581 69.76 98.4748 69.76 76.2258H78.48Z" fill="url(#paint0_linear)"/>
<defs>
<linearGradient id="paint0_linear" x1="109" y1="278" x2="109" y2="0" gradientUnits="userSpaceOnUse">
<stop stop-color="#DF5890"/>
<stop offset="1" stop-color="#9F2FFF"/>
</linearGradient>
</defs>
</svg>
