<svg width="101" height="99" viewBox="0 0 101 99" fill="none" xmlns="http://www.w3.org/2000/svg">
<path d="M66.0009 60.8874L74.5265 82.1762C75.2131 83.8907 77.1558 84.755 78.8572 84.1029C80.5347 83.4906 81.3959 81.4794 80.6968 79.8103L72.1712 58.5215C71.4846 56.807 69.5419 55.9427 67.8404 56.5949C66.1399 57.2482 65.3146 59.1735 66.0009 60.8874V60.8874ZM70.1769 59.2863L78.7023 80.575C78.9493 81.1652 78.6461 81.8764 78.0519 82.0927C77.4503 82.3232 76.7634 82.0177 76.5206 81.4114L67.9951 60.1226C67.7484 59.5124 68.0555 58.8274 68.6456 58.605C69.2472 58.3743 69.9342 58.6801 70.1769 59.2863V59.2863Z" fill="#9B9BA1"/>
<path d="M58.4966 72.157C57.6081 72.1481 56.7761 72.4857 56.1541 73.1077C55.532 73.7298 55.1944 74.5618 55.2033 75.4503L55.3218 87.2316C55.3308 88.1202 55.6852 88.9591 56.3199 89.5938C56.9546 90.2285 57.7936 90.5829 58.6821 90.592L70.6226 90.7121C72.4111 90.7669 73.9708 89.2072 73.9159 87.4187C73.9348 85.6309 72.3432 84.0396 70.5556 84.0584L61.942 83.9718L61.8571 75.5174C61.8383 73.683 60.331 72.1757 58.4966 72.157V72.157ZM59.7064 75.4959L59.8022 85.0255C59.7967 85.6031 60.3108 86.117 60.8883 86.1116L70.5772 86.2091C71.2091 86.2022 71.7721 86.7651 71.7653 87.3972C71.785 88.0295 71.233 88.5813 70.6008 88.5616L58.6605 88.4414C58.0285 88.4483 57.4656 87.8853 57.4724 87.2533L57.3537 75.4721C57.3341 74.8399 57.8859 74.2881 58.5181 74.3076C59.1668 74.314 59.7 74.8473 59.7064 75.4959Z" fill="#9B9BA1"/>
<path d="M90.4908 61.578C90.4969 62.172 90.9831 62.6582 91.5769 62.6641C92.1708 62.6699 92.6473 62.1934 92.6414 61.5997L92.5919 56.6821C92.5829 55.7936 92.2285 54.9546 91.5937 54.3199C90.9591 53.6852 90.1202 53.3308 89.2316 53.3218L77.4504 53.2032C76.5619 53.1943 75.7299 53.5319 75.1078 54.154C74.4858 54.776 74.1482 55.608 74.1572 56.4966C74.1758 58.3309 75.6832 59.8383 77.5175 59.857L85.9718 59.9418L86.0584 68.5554C86.0674 69.444 86.4218 70.2829 87.0566 70.9176C87.6912 71.5523 88.5301 71.9067 89.4187 71.9157C90.3073 71.9246 91.1392 71.587 91.7612 70.965C92.3832 70.343 92.7209 69.5109 92.7121 68.6224L92.6924 66.6687C92.6863 66.0747 92.2002 65.5885 91.6063 65.5825C91.0125 65.5768 90.536 66.0533 90.5418 66.647L90.5615 68.6007C90.5811 69.2329 90.0294 69.7847 89.3971 69.7652C88.765 69.7722 88.2021 69.209 88.209 68.5771L88.1115 58.8882C88.1085 58.603 87.9925 58.3284 87.7888 58.1247C87.585 57.9209 87.3105 57.805 87.0253 57.8019L77.4957 57.7063C76.8471 57.6997 76.314 57.1666 76.3075 56.5181C76.2878 55.8858 76.8398 55.334 77.472 55.3536L89.2532 55.4723C89.5673 55.4753 89.8639 55.6007 90.0883 55.8251C90.3128 56.0496 90.4381 56.3463 90.4413 56.6604L90.4908 61.578Z" fill="#9B9BA1"/>
<path d="M65.0009 18.8874L73.5265 40.1762C74.2132 41.8908 76.1558 42.755 77.8573 42.1029C79.5347 41.4906 80.3959 39.4794 79.6968 37.8103L71.1713 16.5215C70.4846 14.807 68.5419 13.9428 66.8404 14.595C65.1399 15.2482 64.3147 17.1735 65.0009 18.8874V18.8874ZM69.1769 17.2863L77.7024 38.575C77.9493 39.1652 77.6461 39.8764 77.052 40.0927C76.4503 40.3232 75.7635 40.0177 75.5207 39.4114L66.9951 18.1226C66.7484 17.5124 67.0556 16.8275 67.6456 16.605C68.2472 16.3743 68.9342 16.6801 69.1769 17.2863V17.2863Z" fill="#9B9BA1"/>
<path d="M57.4966 29.157C56.6081 29.1481 55.7761 29.4857 55.1541 30.1077C54.532 30.7298 54.1944 31.5618 54.2032 32.4503L54.3218 44.2316C54.3308 45.1202 54.6852 45.9591 55.3199 46.5937C55.9546 47.2285 56.7936 47.5829 57.6821 47.5919L69.6226 47.7121C71.4111 47.7669 72.9708 46.2071 72.9159 44.4187C72.9347 42.6309 71.3432 41.0396 69.5556 41.0584L60.942 40.9718L60.857 32.5174C60.8383 30.683 59.331 29.1757 57.4966 29.157V29.157ZM58.7064 32.4958L58.8021 42.0255C58.7967 42.6031 59.3108 43.117 59.8883 43.1116L69.5771 43.2091C70.2091 43.2022 70.7721 43.7651 70.7652 44.3972C70.785 45.0295 70.233 45.5812 69.6008 45.5616L57.6605 45.4414C57.0285 45.4483 56.4656 44.8853 56.4724 44.2533L56.3537 32.4721C56.3341 31.8399 56.8858 31.2881 57.5181 31.3075C58.1668 31.314 58.7 31.8472 58.7064 32.4958Z" fill="#9B9BA1"/>
<path d="M89.4908 18.578C89.4969 19.172 89.9831 19.6582 90.5769 19.6641C91.1708 19.6699 91.6473 19.1934 91.6414 18.5997L91.5919 13.6821C91.5829 12.7936 91.2285 11.9546 90.5937 11.3199C89.9591 10.6852 89.1202 10.3308 88.2316 10.3218L76.4504 10.2032C75.5619 10.1943 74.7299 10.5319 74.1078 11.154C73.4858 11.776 73.1482 12.608 73.1572 13.4966C73.1758 15.3309 74.6832 16.8383 76.5175 16.857L84.9718 16.9418L85.0584 25.5554C85.0674 26.444 85.4218 27.2829 86.0566 27.9176C86.6912 28.5523 87.5301 28.9067 88.4187 28.9157C89.3073 28.9246 90.1392 28.587 90.7612 27.965C91.3832 27.343 91.7209 26.5109 91.7121 25.6224L91.6924 23.6687C91.6863 23.0747 91.2002 22.5885 90.6063 22.5825C90.0125 22.5768 89.536 23.0533 89.5418 23.647L89.5615 25.6007C89.5811 26.2329 89.0294 26.7847 88.3971 26.7652C87.765 26.7722 87.2021 26.209 87.209 25.5771L87.1115 15.8882C87.1085 15.603 86.9925 15.3284 86.7888 15.1247C86.585 14.9209 86.3105 14.805 86.0253 14.8019L76.4957 14.7063C75.8471 14.6997 75.314 14.1666 75.3075 13.5181C75.2878 12.8858 75.8398 12.334 76.472 12.3536L88.2532 12.4723C88.5673 12.4753 88.8639 12.6007 89.0883 12.8251C89.3128 13.0496 89.4381 13.3463 89.4413 13.6604L89.4908 18.578Z" fill="#9B9BA1"/>
<path d="M20.9432 61.8297L28.8643 82.5141C29.5023 84.1799 31.3881 84.9872 33.0682 84.3139C34.7241 83.68 35.6086 81.6921 34.9575 80.071L27.0364 59.3866C26.3984 57.7208 24.5126 56.9135 22.8324 57.5869C21.1531 58.2614 20.3056 60.1644 20.9432 61.8297ZM25.0669 60.1763L32.988 80.8606C33.218 81.4339 32.9065 82.1368 32.32 82.3608C31.7259 82.5988 31.0591 82.3134 30.8336 81.7243L22.9124 61.0399C22.6831 60.4471 22.9979 59.7698 23.5805 59.5399C24.1746 59.3017 24.8414 59.5874 25.0669 60.1763Z" fill="#9B9BA1"/>
<path d="M13.4967 73.157C12.6082 73.1482 11.7762 73.4858 11.1542 74.1078C10.5321 74.7299 10.1945 75.5618 10.2033 76.4504L10.3219 88.2317C10.3309 89.1203 10.6853 89.9592 11.32 90.5938C11.9547 91.2286 12.7936 91.583 13.6822 91.592L25.6226 91.7122C27.4112 91.767 28.9709 90.2072 28.916 88.4188C28.9348 86.631 27.3433 85.0396 25.5557 85.0585L16.9421 84.9719L16.8571 76.5175C16.8384 74.6831 15.3311 73.1758 13.4967 73.157V73.157ZM14.7064 76.4959L14.8022 86.0255C14.7968 86.6032 15.3109 87.1171 15.8883 87.1117L25.5772 87.2091C26.2092 87.2022 26.7722 87.7652 26.7653 88.3972C26.7851 89.0296 26.2331 89.5813 25.6009 89.5617L13.6606 89.4414C13.0286 89.4484 12.4656 88.8854 12.4725 88.2533L12.3538 76.4721C12.3342 75.8399 12.8859 75.2882 13.5181 75.3076C14.1668 75.314 14.7001 75.8473 14.7064 76.4959Z" fill="#9B9BA1"/>
<path d="M45.4909 62.5781C45.497 63.1721 45.9832 63.6582 46.577 63.6642C47.1709 63.67 47.6474 63.1935 47.6415 62.5997L47.592 57.6822C47.583 56.7936 47.2286 55.9547 46.5938 55.32C45.9592 54.6853 45.1203 54.3309 44.2317 54.3219L32.4505 54.2032C31.562 54.1944 30.73 54.532 30.1079 55.1541C29.4859 55.7761 29.1483 56.6081 29.1572 57.4967C29.1759 59.331 30.6833 60.8384 32.5176 60.857L40.9719 60.9419L41.0585 69.5555C41.0675 70.4441 41.4219 71.283 42.0567 71.9177C42.6913 72.5524 43.5302 72.9068 44.4188 72.9158C45.3073 72.9247 46.1393 72.5871 46.7613 71.9651C47.3833 71.3431 47.721 70.511 47.7122 69.6224L47.6925 67.6687C47.6864 67.0748 47.2002 66.5886 46.6064 66.5826C46.0125 66.5768 45.536 67.0533 45.5419 67.6471L45.5616 69.6008C45.5812 70.233 45.0295 70.7848 44.3971 70.7652C43.7651 70.7722 43.2021 70.2091 43.209 69.5771L43.1116 59.8882C43.1086 59.6031 42.9926 59.3285 42.7888 59.1248C42.5851 58.921 42.3106 58.8051 42.0253 58.802L32.4958 58.7063C31.8472 58.6998 31.314 58.1666 31.3076 57.5181C31.2879 56.8858 31.8398 56.3341 32.472 56.3537L44.2532 56.4724C44.5674 56.4754 44.8639 56.6007 45.0884 56.8252C45.3128 57.0497 45.4382 57.3464 45.4413 57.6605L45.4909 62.5781Z" fill="#9B9BA1"/>
</svg>
