<svg width="129" height="106" viewBox="0 0 129 106" fill="none" xmlns="http://www.w3.org/2000/svg">
<path d="M79.4874 17.5811C64.9198 17.7059 50.8384 19.5149 38.538 22.8191C37.1311 20.7063 34.4108 19.25 31.25 19.25C26.6657 19.25 22.9375 22.2774 22.9375 26C22.9375 26.7256 23.1162 27.4107 23.3781 28.0655C8.34698 34.7007 0.078125 43.5078 0.078125 53C0.078125 57.536 1.98377 61.9201 5.69945 66.0612C4.77884 67.1463 4.23437 68.4592 4.23437 69.875C4.23437 73.5976 7.96253 76.625 12.5469 76.625C14.5045 76.625 16.2813 76.0496 17.7027 75.1282C26.7425 80.0827 38.5754 83.8576 52.1622 86.1104C52.7877 89.3336 56.202 91.8125 60.3437 91.8125C63.6542 91.8125 66.495 90.2212 67.8312 87.9414C71.6612 88.2147 75.5452 88.3683 79.4396 88.4037C91.6237 99.1514 108.841 105.312 126.844 105.312H128.922V0.6875H126.844C108.134 0.6875 91.2662 7.20294 79.4874 17.5811ZM124.766 4.09119V8.37744C123.537 7.79525 122.131 7.4375 120.609 7.4375C116.025 7.4375 112.297 10.4649 112.297 14.1875C112.297 17.9101 116.025 20.9375 120.609 20.9375C122.131 20.9375 123.537 20.5798 124.766 19.9993V59.1172C116.908 61.9674 104.83 63.9266 91.1291 64.5746C90.1004 61.7936 86.9562 59.75 83.2031 59.75C79.3815 59.75 76.1895 61.8661 75.221 64.7214C72.8603 64.6556 70.5349 64.5526 68.2552 64.4092C67.16 60.6899 66.5781 56.861 66.5781 53C66.5781 26.5805 92.4944 4.98387 124.766 4.09119V4.09119ZM124.766 14.1875C124.766 16.0488 122.902 17.5625 120.609 17.5625C118.317 17.5625 116.453 16.0488 116.453 14.1875C116.453 12.3262 118.317 10.8125 120.609 10.8125C122.902 10.8125 124.766 12.3262 124.766 14.1875ZM87.3594 66.5C87.3594 68.3613 85.4953 69.875 83.2031 69.875C80.9109 69.875 79.0469 68.3613 79.0469 66.5C79.0469 64.6387 80.9109 63.125 83.2031 63.125C85.4953 63.125 87.3594 64.6387 87.3594 66.5ZM31.25 53C31.25 54.8613 29.3859 56.375 27.0937 56.375C24.8016 56.375 22.9375 54.8613 22.9375 53C22.9375 51.1387 24.8016 49.625 27.0937 49.625C29.3859 49.625 31.25 51.1387 31.25 53ZM33.4009 48.653C35.8177 47.3739 39.1552 46.1842 43.2512 45.1447C44.764 46.8288 47.1955 47.9375 49.9531 47.9375C53.9805 47.9375 57.3429 45.5986 58.1015 42.5071C59.9842 42.281 61.9169 42.0869 63.8911 41.9182C62.9372 45.4906 62.4219 49.1964 62.4219 53C62.4219 56.7429 62.9352 60.4587 63.8994 64.0852C50.5495 62.936 39.3401 60.4925 33.4029 57.3419C34.6353 56.1657 35.4062 54.6622 35.4062 53C35.4062 51.3361 34.6332 49.8309 33.4009 48.653V48.653ZM45.7969 41.1875C45.7969 39.3262 47.661 37.8125 49.9531 37.8125C52.2453 37.8125 54.1094 39.3262 54.1094 41.1875C54.1094 43.0488 52.2453 44.5625 49.9531 44.5625C47.661 44.5625 45.7969 43.0488 45.7969 41.1875ZM31.25 22.625C33.5422 22.625 35.4062 24.1387 35.4062 26C35.4062 27.8613 33.5422 29.375 31.25 29.375C28.9578 29.375 27.0937 27.8613 27.0937 26C27.0937 24.1387 28.9578 22.625 31.25 22.625ZM12.5469 73.25C10.2547 73.25 8.39062 71.7363 8.39062 69.875C8.39062 68.0137 10.2547 66.5 12.5469 66.5C14.839 66.5 16.7031 68.0137 16.7031 69.875C16.7031 71.7363 14.839 73.25 12.5469 73.25ZM60.3437 88.4375C58.0516 88.4375 56.1875 86.9238 56.1875 85.0625C56.1875 83.2012 58.0516 81.6875 60.3437 81.6875C62.6359 81.6875 64.5 83.2012 64.5 85.0625C64.5 86.9238 62.6359 88.4375 60.3437 88.4375ZM60.3437 78.3125C56.7735 78.3125 53.7478 80.1586 52.5736 82.7321C39.7952 80.5771 28.6981 77.0452 20.2297 72.44C20.6308 71.6469 20.8594 70.7829 20.8594 69.875C20.8594 66.1524 17.1312 63.125 12.5469 63.125C11.2148 63.125 9.97208 63.4051 8.85612 63.8591C5.79713 60.371 4.23437 56.7243 4.23437 53C4.23437 44.7566 11.8195 36.9519 25.6017 30.9224C27.0875 32.048 29.0638 32.75 31.25 32.75C35.7907 32.75 39.4815 29.7749 39.55 26.0996C50.4997 23.1296 62.9456 21.3914 75.9089 21.0253C71.0108 26.1569 67.2681 32.0429 64.9821 38.4318C62.5382 38.6208 60.1526 38.8554 57.8292 39.1288C56.7507 36.4169 53.648 34.4375 49.9531 34.4375C45.3688 34.4375 41.6406 37.4649 41.6406 41.1875C41.6406 41.4626 41.7009 41.7241 41.7404 41.9907C36.5721 43.3188 32.5426 44.873 29.7226 46.628C28.8913 46.4019 28.0185 46.25 27.0937 46.25C22.5094 46.25 18.7812 49.2774 18.7812 53C18.7812 56.7226 22.5094 59.75 27.0937 59.75C28.0247 59.75 28.9038 59.5964 29.7392 59.3669C37.5301 64.1898 54.9531 67.5446 75.1504 68.0964C76.0398 71.0478 79.3004 73.25 83.2031 73.25C87.1744 73.25 90.4932 70.9736 91.312 67.9462C104.581 67.3201 116.468 65.4774 124.766 62.7791V79.325C123.18 79.7857 121.549 80.2211 119.878 80.6328C118.579 78.2771 115.676 76.625 112.297 76.625C107.713 76.625 103.984 79.6524 103.984 83.375C103.984 83.4476 104.007 83.5134 104.011 83.5842C92.6399 85.0726 80.4018 85.4321 68.6022 84.617C68.3134 81.1053 64.739 78.3125 60.3437 78.3125V78.3125ZM116.453 83.375C116.453 85.2363 114.589 86.75 112.297 86.75C110.005 86.75 108.141 85.2363 108.141 83.375C108.141 81.5137 110.005 80 112.297 80C114.589 80 116.453 81.5137 116.453 83.375ZM85.221 88.3666C92.0352 88.2198 98.7288 87.7136 105.202 86.8411C106.659 88.8003 109.279 90.125 112.297 90.125C116.617 90.125 120.138 87.425 120.532 83.9977C121.973 83.6501 123.382 83.2839 124.766 82.8991V101.907C109.976 101.492 95.8901 96.6387 85.221 88.3666V88.3666ZM99.8281 31.0625C100.973 31.0625 101.906 30.3065 101.906 29.375H106.062C106.062 32.1661 103.265 34.4375 99.8281 34.4375C96.3909 34.4375 93.5937 32.1661 93.5937 29.375C93.5937 26.5839 96.3909 24.3125 99.8281 24.3125V27.6875C98.6831 27.6875 97.75 28.4435 97.75 29.375C97.75 30.3065 98.6831 31.0625 99.8281 31.0625ZM76.9687 51.3125C80.406 51.3125 83.2031 49.0411 83.2031 46.25C83.2031 43.4589 80.406 41.1875 76.9687 41.1875C73.5315 41.1875 70.7344 43.4589 70.7344 46.25C70.7344 49.0411 73.5315 51.3125 76.9687 51.3125ZM76.9687 44.5625C78.1138 44.5625 79.0469 45.3185 79.0469 46.25C79.0469 47.1815 78.1138 47.9375 76.9687 47.9375C75.8237 47.9375 74.8906 47.1815 74.8906 46.25C74.8906 45.3185 75.8237 44.5625 76.9687 44.5625ZM108.141 49.625H103.984C103.984 48.6935 103.051 47.9375 101.906 47.9375C100.761 47.9375 99.8281 48.6935 99.8281 49.625C99.8281 50.5565 100.761 51.3125 101.906 51.3125V54.6875C98.469 54.6875 95.6719 52.4161 95.6719 49.625C95.6719 46.8339 98.469 44.5625 101.906 44.5625C105.343 44.5625 108.141 46.8339 108.141 49.625ZM104.863 14.7629L103.103 11.7052C104.523 11.1669 105.975 10.6758 107.42 10.2421L108.858 13.4096C107.523 13.8078 106.179 14.2634 104.863 14.7629ZM79.7534 35.153L75.9879 33.722C80.8819 25.2221 88.7663 18.2409 98.7849 13.5344L100.867 16.4538C91.5884 20.816 84.2858 27.2808 79.7534 35.153ZM120.609 58.0625H116.453V54.6875H120.609V58.0625ZM120.609 51.3125H116.453V47.9375H120.609V51.3125ZM120.609 44.5625H116.453V41.1875H120.609V44.5625Z" fill="url(#paint0_linear)"/>
<defs>
<linearGradient id="paint0_linear" x1="103.929" y1="105.759" x2="60.7257" y2="2.26306" gradientUnits="userSpaceOnUse">
<stop stop-color="#DF5890"/>
<stop offset="1" stop-color="#6B6071"/>
</linearGradient>
</defs>
</svg>
