<svg width="353" height="123" viewBox="0 0 353 123" fill="none" xmlns="http://www.w3.org/2000/svg">
<path d="M81.4874 18.5811C66.9198 18.7059 52.8384 20.5149 40.538 23.8191C39.1311 21.7063 36.4108 20.25 33.25 20.25C28.6657 20.25 24.9375 23.2774 24.9375 27C24.9375 27.7256 25.1162 28.4107 25.3781 29.0655C10.347 35.7007 2.07812 44.5078 2.07812 54C2.07812 58.536 3.98377 62.9201 7.69945 67.0612C6.77884 68.1463 6.23437 69.4592 6.23437 70.875C6.23437 74.5976 9.96253 77.625 14.5469 77.625C16.5045 77.625 18.2813 77.0496 19.7027 76.1282C28.7425 81.0827 40.5754 84.8576 54.1622 87.1104C54.7877 90.3336 58.202 92.8125 62.3437 92.8125C65.6542 92.8125 68.495 91.2212 69.8312 88.9414C73.6612 89.2147 77.5452 89.3683 81.4396 89.4037C93.6237 100.151 110.841 106.312 128.844 106.312H130.922V1.6875H128.844C110.134 1.6875 93.2662 8.20294 81.4874 18.5811ZM126.766 5.09119V9.37744C125.537 8.79525 124.131 8.4375 122.609 8.4375C118.025 8.4375 114.297 11.4649 114.297 15.1875C114.297 18.9101 118.025 21.9375 122.609 21.9375C124.131 21.9375 125.537 21.5798 126.766 20.9993V60.1172C118.908 62.9674 106.83 64.9266 93.1291 65.5746C92.1004 62.7936 88.9562 60.75 85.2031 60.75C81.3815 60.75 78.1895 62.8661 77.221 65.7214C74.8603 65.6556 72.5349 65.5526 70.2552 65.4092C69.16 61.6899 68.5781 57.861 68.5781 54C68.5781 27.5805 94.4944 5.98387 126.766 5.09119V5.09119ZM126.766 15.1875C126.766 17.0488 124.902 18.5625 122.609 18.5625C120.317 18.5625 118.453 17.0488 118.453 15.1875C118.453 13.3262 120.317 11.8125 122.609 11.8125C124.902 11.8125 126.766 13.3262 126.766 15.1875ZM89.3594 67.5C89.3594 69.3613 87.4953 70.875 85.2031 70.875C82.9109 70.875 81.0469 69.3613 81.0469 67.5C81.0469 65.6387 82.9109 64.125 85.2031 64.125C87.4953 64.125 89.3594 65.6387 89.3594 67.5ZM33.25 54C33.25 55.8613 31.3859 57.375 29.0937 57.375C26.8016 57.375 24.9375 55.8613 24.9375 54C24.9375 52.1387 26.8016 50.625 29.0937 50.625C31.3859 50.625 33.25 52.1387 33.25 54ZM35.4009 49.653C37.8177 48.3739 41.1552 47.1842 45.2512 46.1447C46.764 47.8288 49.1955 48.9375 51.9531 48.9375C55.9805 48.9375 59.3429 46.5986 60.1015 43.5071C61.9842 43.281 63.9169 43.0869 65.8911 42.9182C64.9372 46.4906 64.4219 50.1964 64.4219 54C64.4219 57.7429 64.9352 61.4587 65.8994 65.0852C52.5495 63.936 41.3401 61.4925 35.4029 58.3419C36.6353 57.1657 37.4062 55.6622 37.4062 54C37.4062 52.3361 36.6332 50.8309 35.4009 49.653V49.653ZM47.7969 42.1875C47.7969 40.3262 49.661 38.8125 51.9531 38.8125C54.2453 38.8125 56.1094 40.3262 56.1094 42.1875C56.1094 44.0488 54.2453 45.5625 51.9531 45.5625C49.661 45.5625 47.7969 44.0488 47.7969 42.1875ZM33.25 23.625C35.5422 23.625 37.4062 25.1387 37.4062 27C37.4062 28.8613 35.5422 30.375 33.25 30.375C30.9578 30.375 29.0937 28.8613 29.0937 27C29.0937 25.1387 30.9578 23.625 33.25 23.625ZM14.5469 74.25C12.2547 74.25 10.3906 72.7363 10.3906 70.875C10.3906 69.0137 12.2547 67.5 14.5469 67.5C16.839 67.5 18.7031 69.0137 18.7031 70.875C18.7031 72.7363 16.839 74.25 14.5469 74.25ZM62.3437 89.4375C60.0516 89.4375 58.1875 87.9238 58.1875 86.0625C58.1875 84.2012 60.0516 82.6875 62.3437 82.6875C64.6359 82.6875 66.5 84.2012 66.5 86.0625C66.5 87.9238 64.6359 89.4375 62.3437 89.4375ZM62.3437 79.3125C58.7735 79.3125 55.7478 81.1586 54.5736 83.7321C41.7952 81.5771 30.6981 78.0452 22.2297 73.44C22.6308 72.6469 22.8594 71.7829 22.8594 70.875C22.8594 67.1524 19.1312 64.125 14.5469 64.125C13.2148 64.125 11.9721 64.4051 10.8561 64.8591C7.79713 61.371 6.23437 57.7243 6.23437 54C6.23437 45.7566 13.8195 37.9519 27.6017 31.9224C29.0875 33.048 31.0638 33.75 33.25 33.75C37.7907 33.75 41.4815 30.7749 41.55 27.0996C52.4997 24.1296 64.9456 22.3914 77.9089 22.0253C73.0108 27.1569 69.2681 33.0429 66.9821 39.4318C64.5382 39.6208 62.1526 39.8554 59.8292 40.1288C58.7507 37.4169 55.648 35.4375 51.9531 35.4375C47.3688 35.4375 43.6406 38.4649 43.6406 42.1875C43.6406 42.4626 43.7009 42.7241 43.7404 42.9907C38.5721 44.3188 34.5426 45.873 31.7226 47.628C30.8913 47.4019 30.0185 47.25 29.0937 47.25C24.5094 47.25 20.7812 50.2774 20.7812 54C20.7812 57.7226 24.5094 60.75 29.0937 60.75C30.0247 60.75 30.9038 60.5964 31.7392 60.3669C39.5301 65.1898 56.9531 68.5446 77.1504 69.0964C78.0398 72.0478 81.3004 74.25 85.2031 74.25C89.1744 74.25 92.4932 71.9736 93.312 68.9462C106.581 68.3201 118.468 66.4774 126.766 63.7791V80.325C125.18 80.7857 123.549 81.2211 121.878 81.6328C120.579 79.2771 117.676 77.625 114.297 77.625C109.713 77.625 105.984 80.6524 105.984 84.375C105.984 84.4476 106.007 84.5134 106.011 84.5842C94.6399 86.0726 82.4018 86.4321 70.6022 85.617C70.3134 82.1053 66.739 79.3125 62.3437 79.3125V79.3125ZM118.453 84.375C118.453 86.2363 116.589 87.75 114.297 87.75C112.005 87.75 110.141 86.2363 110.141 84.375C110.141 82.5137 112.005 81 114.297 81C116.589 81 118.453 82.5137 118.453 84.375ZM87.221 89.3666C94.0352 89.2198 100.729 88.7136 107.202 87.8411C108.659 89.8003 111.279 91.125 114.297 91.125C118.617 91.125 122.138 88.425 122.532 84.9977C123.973 84.6501 125.382 84.2839 126.766 83.8991V102.907C111.976 102.492 97.8901 97.6387 87.221 89.3666V89.3666ZM101.828 32.0625C102.973 32.0625 103.906 31.3065 103.906 30.375H108.062C108.062 33.1661 105.265 35.4375 101.828 35.4375C98.3909 35.4375 95.5937 33.1661 95.5937 30.375C95.5937 27.5839 98.3909 25.3125 101.828 25.3125V28.6875C100.683 28.6875 99.75 29.4435 99.75 30.375C99.75 31.3065 100.683 32.0625 101.828 32.0625ZM78.9687 52.3125C82.406 52.3125 85.2031 50.0411 85.2031 47.25C85.2031 44.4589 82.406 42.1875 78.9687 42.1875C75.5315 42.1875 72.7344 44.4589 72.7344 47.25C72.7344 50.0411 75.5315 52.3125 78.9687 52.3125ZM78.9687 45.5625C80.1138 45.5625 81.0469 46.3185 81.0469 47.25C81.0469 48.1815 80.1138 48.9375 78.9687 48.9375C77.8237 48.9375 76.8906 48.1815 76.8906 47.25C76.8906 46.3185 77.8237 45.5625 78.9687 45.5625ZM110.141 50.625H105.984C105.984 49.6935 105.051 48.9375 103.906 48.9375C102.761 48.9375 101.828 49.6935 101.828 50.625C101.828 51.5565 102.761 52.3125 103.906 52.3125V55.6875C100.469 55.6875 97.6719 53.4161 97.6719 50.625C97.6719 47.8339 100.469 45.5625 103.906 45.5625C107.343 45.5625 110.141 47.8339 110.141 50.625ZM106.863 15.7629L105.103 12.7052C106.523 12.1669 107.975 11.6758 109.42 11.2421L110.858 14.4096C109.523 14.8078 108.179 15.2634 106.863 15.7629ZM81.7534 36.153L77.9879 34.722C82.8819 26.2221 90.7663 19.2409 100.785 14.5344L102.867 17.4538C93.5884 21.816 86.2858 28.2808 81.7534 36.153ZM122.609 59.0625H118.453V55.6875H122.609V59.0625ZM122.609 52.3125H118.453V48.9375H122.609V52.3125ZM122.609 45.5625H118.453V42.1875H122.609V45.5625Z" fill="url(#paint0_linear)"/>
<g filter="url(#filter0_d)">
<path d="M170.135 19.03C170.135 18.04 169.988 17.1967 169.695 16.5H185.37C186.69 20.02 187.662 24.3283 188.285 29.425C188.945 34.5217 189.293 39.38 189.33 44H176.625C176.368 37.4 175.287 31.0383 173.38 24.915C170.19 31.1483 168.467 37.51 168.21 44H157.43C156.477 36.8133 154.643 30.4333 151.93 24.86C149.95 29.5167 148.96 33.8433 148.96 37.84C148.96 40.0033 149.217 42.0567 149.73 44H136.365C136.108 42.4967 135.98 40.5167 135.98 38.06C135.98 35.5667 136.347 33.0733 137.08 30.58C139.683 29.81 142.177 28.545 144.56 26.785C146.98 25.025 148.758 23.1 149.895 21.01C148.942 19.4333 147.933 17.93 146.87 16.5H164.25C165.643 20.2767 166.688 24.3833 167.385 28.82C169.218 25.41 170.135 22.1467 170.135 19.03ZM229.797 43.56V44H217.037C216.89 41.91 216.578 39.7467 216.102 37.51C213.828 39.82 211.262 41.9833 208.402 44H195.587C195.33 42.4967 195.202 40.5167 195.202 38.06C195.202 35.5667 195.568 33.0733 196.302 30.58C198.942 29.81 201.472 28.5083 203.892 26.675C206.348 24.8417 208.127 22.8617 209.227 20.735C208.237 19.195 207.192 17.7833 206.092 16.5H224.352C227.982 24.3833 229.797 33.4033 229.797 43.56ZM215.112 33.495C214.158 30.2317 212.912 27.1517 211.372 24.255C209.648 29.315 208.658 34.1 208.402 38.61C211.042 37.2533 213.278 35.5483 215.112 33.495ZM265.051 26.07L264.996 27.94C262.062 29.5167 258.396 30.745 253.996 31.625C257.149 32.4683 260.192 32.89 263.126 32.89H264.281C266.297 35.86 267.599 39.5633 268.186 44H253.941C253.574 41.4333 252.822 39.2333 251.686 37.4C250.586 35.53 249.229 34.265 247.616 33.605C247.579 34.2283 247.561 35.475 247.561 37.345C247.561 39.215 247.671 41.4333 247.891 44H235.901C234.837 38.6833 234.306 33.7517 234.306 29.205C234.306 24.6217 234.562 20.3867 235.076 16.5H263.786C264.629 20.2033 265.051 23.3933 265.051 26.07ZM248.771 20.185C248.331 23.4117 248.001 26.5833 247.781 29.7C249.797 29.4067 251.447 28.6917 252.731 27.555C252.034 25.0983 250.714 22.6417 248.771 20.185ZM288.429 16.5V17.985C288.429 27.665 287.824 36.3367 286.614 44H273.414C274.11 40.6267 274.459 36.74 274.459 32.34C274.459 27.9033 274.165 22.6233 273.579 16.5H288.429ZM168.21 64.07L168.155 65.94C165.222 67.5167 161.555 68.745 157.155 69.625C160.308 70.4683 163.352 70.89 166.285 70.89H167.44C169.457 73.86 170.758 77.5633 171.345 82H157.1C156.733 79.4333 155.982 77.2333 154.845 75.4C153.745 73.53 152.388 72.265 150.775 71.605C150.738 72.2283 150.72 73.475 150.72 75.345C150.72 77.215 150.83 79.4333 151.05 82H139.06C137.997 76.6833 137.465 71.7517 137.465 67.205C137.465 62.6217 137.722 58.3867 138.235 54.5H166.945C167.788 58.2033 168.21 61.3933 168.21 64.07ZM151.93 58.185C151.49 61.4117 151.16 64.5833 150.94 67.7C152.957 67.4067 154.607 66.6917 155.89 65.555C155.193 63.0983 153.873 60.6417 151.93 58.185ZM179.598 81.835C176.335 77.655 174.703 73.365 174.703 68.965C174.703 64.565 176.536 60.8433 180.203 57.8C183.87 54.7567 188.563 53.235 194.283 53.235C197.326 53.235 200.351 53.6933 203.358 54.61C205.998 57.9467 207.318 61.5217 207.318 65.335C207.318 70.1383 205.356 74.3183 201.433 77.875C197.51 81.4317 192.761 83.21 187.188 83.21C184.805 83.21 182.275 82.7517 179.598 81.835ZM187.958 58.02C186.675 60.22 186.033 62.805 186.033 65.775C186.033 68.745 186.675 71.495 187.958 74.025C189.278 76.5183 191.075 78.315 193.348 79.415C195.071 77.215 195.933 74.6667 195.933 71.77C195.933 68.8733 195.218 66.1783 193.788 63.685C192.395 61.1917 190.451 59.3033 187.958 58.02ZM216.129 81.835C212.866 77.655 211.234 73.3833 211.234 69.02C211.234 64.62 213.068 60.8983 216.734 57.855C220.401 54.775 225.094 53.235 230.814 53.235C233.968 53.235 236.974 53.675 239.834 54.555C242.511 57.9283 243.849 61.54 243.849 65.39C243.849 70.6333 241.558 75.0883 236.974 78.755C237.378 78.6817 238.111 78.4983 239.174 78.205C240.238 77.9117 241.099 77.765 241.759 77.765C242.456 77.765 243.189 77.8933 243.959 78.15L247.919 83.265C247.186 82.385 246.104 81.945 244.674 81.945C243.281 81.945 241.411 82.1467 239.064 82.55C236.718 82.9533 235.123 83.1733 234.279 83.21C233.546 82.88 232.813 82.33 232.079 81.56C229.403 82.66 226.744 83.21 224.104 83.21C221.464 83.21 218.806 82.7517 216.129 81.835ZM224.489 58.075C223.169 60.3483 222.509 62.9517 222.509 65.885C222.509 68.7817 223.169 71.495 224.489 74.025C225.809 76.5183 227.606 78.315 229.879 79.415C231.603 77.215 232.464 74.6667 232.464 71.77C232.464 68.8733 231.749 66.1783 230.319 63.685C228.926 61.1917 226.983 59.3217 224.489 58.075ZM281.855 54.5C282.002 56.8833 282.075 60.3667 282.075 64.95C282.075 69.4967 281.782 74.355 281.195 79.525C277.382 81.9817 272.817 83.21 267.5 83.21C260.423 83.21 254.703 81.9817 250.34 79.525C249.863 75.565 249.625 71.7333 249.625 68.03C249.625 64.29 249.9 59.78 250.45 54.5H265.245C263.778 62.4567 263.008 70.1017 262.935 77.435C264.475 78.8283 266.693 79.525 269.59 79.525C272.487 79.525 274.705 79.0117 276.245 77.985C276.318 76.775 276.355 75.0333 276.355 72.76C276.355 66.9667 275.842 60.88 274.815 54.5H281.855ZM307.054 65.555L312.224 65.885C312.738 65.885 313.123 65.8667 313.379 65.83L310.794 70.67H310.299C309.603 70.67 308.613 70.4867 307.329 70.12C306.046 69.7167 305.129 69.515 304.579 69.515C303.076 69.515 301.884 70.4867 301.004 72.43C300.858 74.2267 300.748 76.0233 300.674 77.82C302.581 78.1867 304.084 78.37 305.184 78.37H305.679C307.256 78.37 308.503 78.0217 309.419 77.325C310.373 76.6283 311.051 75.3817 311.454 73.585L318.054 73.86C317.504 77.0133 316.771 79.7267 315.854 82H288.849C288.116 77.05 287.749 72.1367 287.749 67.26C287.749 62.3833 288.006 58.13 288.519 54.5H317.999C317.339 58.46 316.753 61.2467 316.239 62.86C314.076 62.97 312.096 63.0433 310.299 63.08C310.593 62.2367 310.739 61.4483 310.739 60.715C310.739 58.955 309.419 58.075 306.779 58.075C305.789 58.075 304.689 58.185 303.479 58.405C302.673 61.8883 302.049 64.95 301.609 67.59C303.076 66.2333 304.891 65.555 307.054 65.555Z" fill="#DF5890"/>
</g>
<defs>
<filter id="filter0_d" x="131.98" y="16.5" width="190.074" height="74.765" filterUnits="userSpaceOnUse" color-interpolation-filters="sRGB">
<feFlood flood-opacity="0" result="BackgroundImageFix"/>
<feColorMatrix in="SourceAlpha" type="matrix" values="0 0 0 0 0 0 0 0 0 0 0 0 0 0 0 0 0 0 127 0"/>
<feOffset dy="4"/>
<feGaussianBlur stdDeviation="2"/>
<feColorMatrix type="matrix" values="0 0 0 0 0 0 0 0 0 0 0 0 0 0 0 0 0 0 0.25 0"/>
<feBlend mode="normal" in2="BackgroundImageFix" result="effect1_dropShadow"/>
<feBlend mode="normal" in="SourceGraphic" in2="effect1_dropShadow" result="shape"/>
</filter>
<linearGradient id="paint0_linear" x1="105.929" y1="106.759" x2="62.7257" y2="3.26306" gradientUnits="userSpaceOnUse">
<stop stop-color="#DF5890"/>
<stop offset="1" stop-color="#6B6071"/>
</linearGradient>
</defs>
</svg>
