<svg width="198" height="85" viewBox="0 0 198 85" fill="none" xmlns="http://www.w3.org/2000/svg">
<path d="M182.055 1.11942C171.872 -0.301505 162.397 6.34304 160.893 15.9603C160.19 20.4517 161.352 25.0256 164.136 28.7269L144.291 45.7442C137.379 38.5236 125.579 37.9613 117.934 44.4887C116.259 45.9185 114.873 47.6236 113.842 49.5207L90.959 32.0763C91.4798 22.3597 83.5622 14.0841 73.2739 13.5922C62.9857 13.1003 54.2233 20.5781 53.7025 30.2947C53.6428 31.4081 53.6953 32.5247 53.8589 33.6289L32.289 54.4742C25.2766 47.3555 13.4814 46.9534 5.9439 53.5766C-1.59357 60.1998 -2.01935 71.3394 4.99345 78.4581C12.0063 85.5768 23.8011 85.979 31.3386 79.3557C36.4198 74.8909 38.4541 68.13 36.618 61.8087L57.4007 41.7249C63.5679 49.5139 75.2528 51.1067 83.4999 45.2821C85.4 43.9404 87.011 42.2683 88.2474 40.3563L111.812 58.3192C112.204 66.761 118.885 73.7517 127.737 74.9811C128.648 75.1079 129.567 75.1714 130.488 75.1719C140.799 75.1425 149.133 67.2243 149.102 57.4859C149.097 55.9801 148.888 54.4811 148.48 53.0251L170.563 34.089C179.651 38.6693 190.95 35.4245 195.8 26.8414C200.65 18.2583 197.214 7.58726 188.126 3.00688C186.232 2.05249 184.179 1.41407 182.055 1.11942ZM28.6522 67.8458C27.8433 73.0767 22.6972 76.6978 17.1587 75.9338C11.6201 75.1698 7.78596 70.3097 8.5949 65.0788C9.40385 59.848 14.5499 56.2268 20.0884 56.9908C20.0935 56.9916 20.0987 56.9924 20.1038 56.9929C25.6334 57.7669 29.4573 62.6214 28.6522 67.8458ZM82.3543 32.5622C81.5389 37.7878 76.3929 41.4001 70.8599 40.63C65.3269 39.86 61.5021 34.9999 62.3174 29.7743C63.0484 25.0896 67.2981 21.6154 72.312 21.6041C72.8111 21.6045 73.3097 21.6387 73.8037 21.7076C79.335 22.4804 83.1607 27.3361 82.3543 32.5622ZM140.468 58.9427C139.653 64.1683 134.507 67.7806 128.974 67.0106C123.441 66.2405 119.616 61.3804 120.432 56.1548C121.163 51.4702 125.413 47.9955 130.427 47.9847C130.926 47.9847 131.425 48.0193 131.919 48.0881C137.453 48.8561 141.28 53.7155 140.467 58.9423L140.468 58.9427ZM189.363 19.9376C188.552 25.1669 183.405 28.7852 177.869 28.0192C172.332 27.2532 168.501 22.3927 169.312 17.1634C170.123 11.9342 175.269 8.31584 180.806 9.08185C180.809 9.08225 180.812 9.08266 180.814 9.08306C186.348 9.85149 190.176 14.7112 189.363 19.9376Z" fill="url(#paint0_linear)"/>
<defs>
<linearGradient id="paint0_linear" x1="99" y1="-58.1303" x2="198" y2="144" gradientUnits="userSpaceOnUse">
<stop stop-color="#DF5890"/>
<stop offset="1" stop-color="#915AAE"/>
</linearGradient>
</defs>
</svg>
