<svg width="135" height="140" viewBox="0 0 135 140" fill="none" xmlns="http://www.w3.org/2000/svg">
<path d="M67.5 0C30.1925 0 0 31.3078 0 70C0 108.689 30.1896 140 67.5 140C104.807 140 135 108.692 135 70C135 31.3108 104.81 0 67.5 0ZM41.3822 14.4246C39.3396 20.1939 37.6249 26.0586 36.2409 32.0053C32.1959 30.7308 28.2168 29.2026 24.3116 27.422C29.2565 22.0344 35.0188 17.6477 41.3822 14.4246ZM19.0735 33.9719C24.1283 36.3995 29.3016 38.4289 34.5779 40.0567C33.0471 48.5313 32.1717 57.1569 31.9639 65.8984H8.04252C8.77105 54.2935 12.5845 43.3098 19.0735 33.9719ZM19.0735 106.028C12.5845 96.6902 8.77105 85.7065 8.04252 74.1016H31.9639C32.1717 82.8431 33.0471 91.4687 34.5779 99.9433C29.3016 101.571 24.1286 103.601 19.0735 106.028ZM24.3116 112.578C28.2168 110.797 32.1957 109.269 36.2409 107.995C37.6252 113.942 39.3396 119.806 41.3822 125.576C35.022 122.354 29.2591 117.968 24.3116 112.578ZM63.5449 131.66C59.391 131.379 55.3192 130.66 51.3804 129.52C48.252 121.831 45.755 113.947 43.8927 105.905C50.3046 104.418 56.8651 103.549 63.5449 103.303V131.66ZM63.5449 95.0953C56.3077 95.3433 49.1999 96.273 42.2532 97.8775C40.8731 90.0766 40.0779 82.1412 39.8767 74.1016H63.5449V95.0953ZM63.5449 65.8984H39.8767C40.0779 57.8588 40.8731 49.9234 42.2532 42.1225C49.1999 43.727 56.3077 44.6567 63.5449 44.9047V65.8984ZM63.5449 36.6967C56.8651 36.4509 50.3046 35.5816 43.8927 34.0949C45.755 26.0529 48.252 18.1691 51.3804 10.48C55.3192 9.3398 59.391 8.62066 63.5449 8.34039V36.6967ZM115.927 33.9719C122.415 43.3098 126.229 54.2935 126.957 65.8984H103.036C102.828 57.1569 101.953 48.5313 100.422 40.0567C105.698 38.4289 110.871 36.3995 115.927 33.9719ZM110.688 27.4217C106.783 29.2026 102.804 30.7308 98.7591 32.005C97.3748 26.0583 95.6604 20.1936 93.6178 14.4244C99.978 17.6457 105.741 22.0317 110.688 27.4217ZM71.4551 8.34039C75.609 8.62066 79.6809 9.3398 83.6196 10.48C86.748 18.1691 89.245 26.0529 91.1073 34.0949C84.6954 35.5816 78.1349 36.4509 71.4551 36.6967V8.34039ZM71.4551 44.9047C78.6923 44.6567 85.8001 43.727 92.7468 42.1225C94.1269 49.9234 94.9221 57.8588 95.1233 65.8984H71.4551V44.9047ZM83.6193 129.52C79.6809 130.66 75.609 131.379 71.4551 131.66V103.303C78.1349 103.549 84.6954 104.418 91.1073 105.905C89.2448 113.947 86.748 121.831 83.6193 129.52ZM71.4551 95.0953V74.1016H95.1233C94.9221 82.1412 94.1269 90.0766 92.7468 97.8775C85.8001 96.273 78.6923 95.3433 71.4551 95.0953ZM93.6178 125.575C95.6604 119.806 97.3751 113.941 98.7591 107.995C102.804 109.269 106.783 110.797 110.688 112.578C105.743 117.966 99.9812 122.352 93.6178 125.575ZM115.927 106.028C110.872 103.601 105.698 101.571 100.422 99.9433C101.953 91.4687 102.828 82.8431 103.036 74.1016H126.957C126.229 85.7065 122.415 96.6902 115.927 106.028Z" fill="#E5E5E5"/>
</svg>
