<svg width="119" height="199" viewBox="0 0 119 199" fill="none" xmlns="http://www.w3.org/2000/svg">
<path d="M42.25 51.4531H31.75C28.8546 51.4531 26.5 54.3263 26.5 57.8594V77.0781C26.5 80.6112 28.8546 83.4844 31.75 83.4844H42.25C45.1454 83.4844 47.5 80.6112 47.5 77.0781V57.8594C47.5 54.3263 45.1454 51.4531 42.25 51.4531ZM31.75 77.0781V57.8594H42.25L42.2526 77.0781H31.75ZM97.9525 38.6406H86.875V51.4531H58V40.6842L44.875 21.4623V9.8125C44.875 4.51453 41.3418 0.203125 37 0.203125C32.6582 0.203125 29.125 4.51453 29.125 9.8125V21.4655L16 40.6874V104.583L0.25 123.802V153.953H27.0565L26.3058 166.766H47.6942L46.9435 153.953H73.75V123.799L58 104.58V70.6719H86.875V73.718L76.0862 198.797H118.375V13.0156H103.2L97.9525 38.6406ZM92.125 45.0469H113.125V70.6719H92.125V45.0469ZM91.8625 77.0781H113.125V78.8078L102.885 89.5159L91.8074 77.6899L91.8625 77.0781ZM91.138 85.4831L98.8607 93.728L89.5919 103.424L91.138 85.4831ZM102.851 97.9913L113.125 108.962V114.045L102.992 124.641L90.3663 111.044L102.851 97.9913ZM88.3791 117.45L98.9684 128.85L86.2476 142.153L88.3791 117.45ZM85.4496 151.426L86.6125 150.209L99.1495 163.896L82.9086 180.885L85.4496 151.426ZM90.634 146.003L102.943 133.13L113.125 144.094V149.28L103.171 159.69L90.634 146.003ZM113.125 157.71V170.558L107.116 163.998L113.125 157.71ZM106.967 128.917L113.125 122.476V135.548L106.967 128.917ZM106.878 93.7792L113.125 87.2448V100.448L106.878 93.7792ZM41.0189 25.8281L49.7706 38.6406H24.2294L32.9811 25.8281H41.0189ZM37 6.60938C38.449 6.60938 39.625 8.04758 39.625 9.8125V19.4219H34.375V9.8125C34.375 8.04758 35.551 6.60938 37 6.60938ZM5.5 126.451L16 113.639V147.547H5.5V126.451ZM31.9442 160.359L34.1913 121.922H39.8061L42.0531 160.359H31.9442ZM44.6939 115.516H29.3087L27.4319 147.547H21.25V45.0469H52.75V147.547H46.5681L44.6939 115.516ZM68.5 126.451V147.547H58V113.639L68.5 126.451ZM58 64.2656V57.8594H86.875V64.2656H58ZM81.9138 192.391L82.1054 190.155L103.092 168.204L113.125 179.155V192.391H81.9138ZM113.125 19.4219V38.6406H103.363L107.303 19.4219H113.125ZM39.625 198.797H34.375V173.172H39.625V198.797ZM50.125 192.391H44.875V173.172H50.125V192.391ZM29.125 192.391H23.875V173.172H29.125V192.391Z" fill="url(#paint0_linear)"/>
<defs>
<linearGradient id="paint0_linear" x1="37" y1="198.797" x2="37" y2="0.203125" gradientUnits="userSpaceOnUse">
<stop stop-color="#915AAE"/>
<stop offset="1" stop-color="#DF5890"/>
</linearGradient>
</defs>
</svg>
